<?xml version="1.0" standalone="no"?>
<!DOCTYPE svg PUBLIC "-//W3C//DTD SVG 20010904//EN"
 "http://www.w3.org/TR/2001/REC-SVG-20010904/DTD/svg10.dtd">
<svg version="1.0" xmlns="http://www.w3.org/2000/svg"
 width="50.000000pt" height="50.000000pt" viewBox="0 0 200.000000 200.000000"
 preserveAspectRatio="xMidYMid meet">

<g transform="translate(0.000000,200.000000) scale(0.100000,-0.100000)"
fill="#000000" stroke="none">
<path d="M920 1826 c0 -3 30 -28 67 -55 251 -189 563 -556 787 -927 l30 -49
12 65 c7 36 13 95 14 131 0 61 -3 70 -37 115 -164 218 -523 567 -702 683 -55
35 -72 41 -118 41 -29 0 -53 -2 -53 -4z"/>
<path d="M1185 1782 c141 -91 331 -261 522 -466 88 -95 92 -97 81 -60 -28 105
-128 264 -216 346 -93 87 -238 169 -347 196 -102 25 -103 25 -40 -16z"/>
<path d="M767 1798 c-21 -6 -37 -13 -35 -17 2 -4 37 -36 78 -72 232 -197 521
-532 677 -782 66 -107 143 -266 171 -352 l19 -60 28 45 c16 25 39 68 52 96
l23 51 -51 94 c-137 248 -294 456 -498 659 -153 153 -386 351 -410 349 -9 -1
-33 -6 -54 -11z"/>
<path d="M497 1659 l-38 -31 72 -44 c170 -105 410 -325 549 -502 153 -196 304
-461 374 -657 16 -44 32 -84 36 -88 9 -10 150 119 150 136 0 13 -147 252 -253
412 -236 354 -455 575 -747 753 -46 29 -89 52 -95 52 -6 0 -27 -14 -48 -31z"/>
<path d="M381 1554 c-23 -29 -27 -44 -12 -44 26 0 205 -134 294 -219 258 -248
434 -568 542 -984 26 -99 30 -107 49 -101 41 13 176 77 176 84 0 26 -116 276
-186 402 -173 311 -405 600 -603 753 -69 53 -208 135 -228 135 -6 0 -21 -12
-32 -26z"/>
<path d="M287 1423 c-52 -83 -55 -75 31 -131 328 -214 598 -632 660 -1019 l17
-106 84 6 c46 4 85 8 87 10 6 6 -80 278 -130 408 -107 282 -244 488 -436 657
-80 70 -270 212 -284 212 -3 0 -16 -17 -29 -37z"/>
<path d="M201 1229 c-6 -18 -11 -39 -11 -47 0 -9 53 -70 118 -136 230 -236
397 -498 497 -781 16 -44 29 -81 29 -81 1 -1 21 -5 45 -9 l44 -7 -7 48 c-21
150 -92 349 -172 486 -123 209 -323 424 -505 542 -27 17 -27 17 -38 -15z"/>
<path d="M170 1037 c0 -57 1 -58 71 -140 124 -143 228 -311 315 -509 28 -66
60 -125 70 -132 30 -21 134 -57 134 -46 0 21 -110 252 -162 340 -95 161 -278
399 -392 509 l-36 35 0 -57z"/>
<path d="M185 835 c23 -108 70 -219 128 -305 37 -54 130 -154 172 -183 l29
-21 -42 77 c-36 68 -197 322 -269 427 l-24 35 6 -30z"/>
</g>
</svg>
